<svg xmlns="http://www.w3.org/2000/svg" xmlns:xlink="http://www.w3.org/1999/xlink" viewBox="0 0 500 500" width="500" height="500" preserveAspectRatio="xMidYMid meet" style="width: 100%; height: 100%; transform: translate3d(0px, 0px, 0px); content-visibility: visible;"><defs><clipPath id="__lottie_element_316"><rect width="500" height="500" x="0" y="0"/></clipPath><clipPath id="__lottie_element_318"><path d="M0,0 L500,0 L500,500 L0,500z"/></clipPath><g id="__lottie_element_398"><g clip-path="url(#__lottie_element_399)" transform="matrix(1,0,0,1,0,35.69422912597656)" opacity="1" style="display: block;"><g class="primary design" transform="matrix(1,0,0,1,250.00399780273438,250.0030059814453)" opacity="1" style="display: block;"><g opacity="1" transform="matrix(1,0,0,1,0,0)"><path stroke-linecap="round" stroke-linejoin="round" fill-opacity="0" stroke="rgb(0,0,0)" stroke-opacity="1" stroke-width="42" d=" M-238.13153076171875,11.824480056762695 C-238.13153076171875,11.824480056762695 -158.65724182128906,71.30043029785156 3.738751173019409,71.30043029785156 C173.30101013183594,71.30043029785156 238.13153076171875,11.824480056762695 238.13153076171875,11.824480056762695"/></g></g><g class="primary design" transform="matrix(1,0,0,1,0,0)" opacity="1" style="display: block;"><g opacity="1" transform="matrix(1,0,0,1,202.5030059814453,250.00399780273438)"><path stroke-linecap="round" stroke-linejoin="round" fill-opacity="0" stroke="rgb(0,0,0)" stroke-opacity="1" stroke-width="42" d=" M80.49700164794922,228.0048370361328 C106.77983093261719,189.3918914794922 125.20803833007812,101.66853332519531 125.20803833007812,0.000051222759793745354 C125.20803833007812,-101.6684341430664 106.77983093261719,-189.3885955810547 80.49700164794922,-228.0053253173828"/></g></g><g class="primary design" transform="matrix(1,0,0,1,0,0)" opacity="1" style="display: none;"><g opacity="1" transform="matrix(1,0,0,1,202.5030059814453,250.00399780273438)"><path stroke-linecap="round" stroke-linejoin="round" fill-opacity="0" stroke="rgb(0,0,0)" stroke-opacity="1" stroke-width="42" d=" M80.49700164794922,229.23573303222656 C208.50689697265625,206.97447204589844 276.01373291015625,102.45701599121094 276.01373291015625,0.07575344294309616 C276.01373291015625,-102.30551147460938 208.50689697265625,-202.0937957763672 80.49700164794922,-229.97161865234375"/></g></g><g class="primary design" transform="matrix(1,0,0,1,0,0)" opacity="1" style="display: none;"><g opacity="1" transform="matrix(1,0,0,1,202.5030059814453,250.00399780273438)"><path stroke-linecap="round" stroke-linejoin="round" fill-opacity="0" stroke="rgb(0,0,0)" stroke-opacity="1" stroke-width="42" d=" M80.49700164794922,229.25596618652344 C210.1797637939453,207.26361083984375 278.4936828613281,102.46998596191406 278.4936828613281,0.07699833810329437 C278.4936828613281,-102.31598663330078 210.1797637939453,-202.30271911621094 80.49700164794922,-230.0039520263672"/></g></g><g class="primary design" transform="matrix(1,0,0,1,0,0)" opacity="1" style="display: block;"><g opacity="1" transform="matrix(1,0,0,1,202.5030059814453,250.00399780273438)"><path stroke-linecap="round" stroke-linejoin="round" fill-opacity="0" stroke="rgb(0,0,0)" stroke-opacity="1" stroke-width="42" d=" M13.54159164428711,226.0053253173828 C-11.692144393920898,187.72010803222656 -29.400100708007812,100.77659606933594 -29.400100708007812,0 C-29.400100708007812,-100.77659606933594 -11.692144393920898,-187.72010803222656 13.54159164428711,-226.0053253173828"/></g></g><g class="primary design" transform="matrix(1,0,0,1,0,0)" opacity="1" style="display: block;"><g opacity="1" transform="matrix(1,0,0,1,202.5030059814453,250.00399780273438)"><path stroke-linecap="round" stroke-linejoin="round" fill-opacity="0" stroke="rgb(0,0,0)" stroke-opacity="1" stroke-width="42" d=" M9.497005462646484,228.00399780273438 C-113.8338623046875,206.3189697265625 -184.50279235839844,101.66799926757812 -184.50279235839844,0 C-184.50279235839844,-101.66799926757812 -115.60086059570312,-207.5249786376953 9.497005462646484,-228.00399780273438"/></g></g></g></g><clipPath id="__lottie_element_399"><path d="M0,0 L500,0 L500,500 L0,500z"/></clipPath><filter id="__lottie_element_402" filterUnits="objectBoundingBox" x="0%" y="0%" width="100%" height="100%"><feComponentTransfer in="SourceGraphic"><feFuncA type="table" tableValues="1.0 0.0"/></feComponentTransfer></filter><mask id="__lottie_element_398_2" mask-type="alpha"><g filter="url(#__lottie_element_402)"><rect width="500" height="500" x="0" y="0" fill="#ffffff" opacity="0"/><use xmlns:ns1="http://www.w3.org/1999/xlink" ns1:href="#__lottie_element_398"/></g></mask></defs><g clip-path="url(#__lottie_element_316)"><g clip-path="url(#__lottie_element_318)" transform="matrix(1,0,0,1,0,0)" opacity="1" style="display: block;"><g mask="url(#__lottie_element_398_2)" style="display: block;"><g class="primary design" transform="matrix(1,0,0,1,250.00399780273438,285.6972351074219)" opacity="1"><path class="primary" fill="rgb(18,19,49)" fill-opacity="1" d=" M192.70899963378906,0 C192.70899963378906,106.43000030517578 106.43000030517578,192.70899963378906 0,192.70899963378906 C-106.43000030517578,192.70899963378906 -192.70899963378906,106.43000030517578 -192.70899963378906,0 C-192.70899963378906,-106.43000030517578 -106.43000030517578,-192.70899963378906 0,-192.70899963378906 C106.43000030517578,-192.70899963378906 192.70899963378906,-106.43000030517578 192.70899963378906,0z"/><g opacity="1" transform="matrix(1,0,0,1,0,0)"><path stroke-linecap="round" stroke-linejoin="round" fill-opacity="0" class="primary" stroke="rgb(18,19,49)" stroke-opacity="1" stroke-width="31.3" d=" M192.70899963378906,0 C192.70899963378906,106.43000030517578 106.43000030517578,192.70899963378906 0,192.70899963378906 C-106.43000030517578,192.70899963378906 -192.70899963378906,106.43000030517578 -192.70899963378906,0 C-192.70899963378906,-106.43000030517578 -106.43000030517578,-192.70899963378906 0,-192.70899963378906 C106.43000030517578,-192.70899963378906 192.70899963378906,-106.43000030517578 192.70899963378906,0z"/></g></g></g><g class="primary design" transform="matrix(1,0,0,1,0,0)" opacity="1" style="display: none;"><g opacity="1" transform="matrix(1,0,0,1,0,0)"><g opacity="1" transform="matrix(1,0,0,1,111.04199981689453,358.43701171875)"><path class="primary" fill="rgb(18,19,49)" fill-opacity="1" d=" M66.875,83.85399627685547 C67.29199981689453,85.10399627685547 67.70800018310547,86.35399627685547 68.33300018310547,87.60399627685547 C-5.625,60.9370002746582 -60.20800018310547,-6.561999797821045 -68.33300018310547,-87.60399627685547 C-68.33300018310547,-87.60399627685547 40.41699981689453,-87.60399627685547 40.41699981689453,-87.60399627685547 C41.875,-22.604000091552734 51.04100036621094,36.979000091552734 66.45800018310547,82.39600372314453 C66.66600036621094,82.81300354003906 66.66699981689453,83.43699645996094 66.875,83.85399627685547z"/></g><g opacity="1" transform="matrix(1,0,0,1,111.04199981689453,141.56199645996094)"><path class="primary" fill="rgb(18,19,49)" fill-opacity="1" d=" M40.41699981689453,87.60399627685547 C40.41699981689453,87.60399627685547 -68.33300018310547,87.60399627685547 -68.33300018310547,87.60399627685547 C-60.20800018310547,6.561999797821045 -5.625,-60.9370002746582 68.33300018310547,-87.60399627685547 C67.70800018310547,-86.35399627685547 67.29199981689453,-85.10399627685547 66.875,-83.85399627685547 C66.875,-83.43699645996094 66.66600036621094,-82.81300354003906 66.45800018310547,-82.39600372314453 C51.04100036621094,-36.979000091552734 41.875,22.604000091552734 40.41699981689453,87.60399627685547z"/></g><g opacity="1" transform="matrix(1,0,0,1,250,364.5830078125)"><path class="primary" fill="rgb(18,19,49)" fill-opacity="1" d=" M-56.875,-93.75 C-56.875,-93.75 56.875,-93.75 56.875,-93.75 C55.41699981689453,-33.33300018310547 46.66699981689453,23.125 32.5,63.95800018310547 C32.5,64.58300018310547 32.29100036621094,65 32.08300018310547,65.625 C28.541000366210938,76.04199981689453 24.583999633789062,85.20800018310547 20.41699981689453,92.70800018310547 C13.75,93.33300018310547 6.875,93.75 0,93.75 C-6.875,93.75 -13.75,93.33300018310547 -20.41699981689453,92.70800018310547 C-24.583999633789062,85.20800018310547 -28.541000366210938,76.04100036621094 -32.08300018310547,65.83300018310547 C-32.29100036621094,65.20800018310547 -32.5,64.58300018310547 -32.5,63.95800018310547 C-46.66699981689453,23.125 -55.41699981689453,-33.33300018310547 -56.875,-93.75z"/></g><g opacity="1" transform="matrix(1,0,0,1,250,135.41700744628906)"><path class="primary" fill="rgb(18,19,49)" fill-opacity="1" d=" M56.875,93.75 C56.875,93.75 -56.875,93.75 -56.875,93.75 C-55.41699981689453,33.33300018310547 -46.66699981689453,-23.125 -32.5,-63.95800018310547 C-32.5,-64.58300018310547 -32.29100036621094,-65 -32.08300018310547,-65.625 C-28.541000366210938,-76.04199981689453 -24.583999633789062,-85.20800018310547 -20.41699981689453,-92.70800018310547 C-13.75,-93.33300018310547 -6.875,-93.75 0,-93.75 C6.875,-93.75 13.75,-93.33300018310547 20.41699981689453,-92.70800018310547 C24.583999633789062,-85.20800018310547 28.541000366210938,-76.04100036621094 32.08300018310547,-65.83300018310547 C32.29100036621094,-65.20800018310547 32.5,-64.58300018310547 32.5,-63.95800018310547 C46.66699981689453,-23.125 55.41699981689453,33.33300018310547 56.875,93.75z"/></g><g opacity="1" transform="matrix(1,0,0,1,388.9580078125,358.43701171875)"><path class="primary" fill="rgb(18,19,49)" fill-opacity="1" d=" M-40.41699981689453,-87.60399627685547 C-40.41699981689453,-87.60399627685547 68.33300018310547,-87.60399627685547 68.33300018310547,-87.60399627685547 C60.20800018310547,-6.561999797821045 5.625,60.9370002746582 -68.33300018310547,87.60399627685547 C-67.70800018310547,86.35399627685547 -67.29199981689453,85.10399627685547 -66.875,83.85399627685547 C-66.875,83.43699645996094 -66.66600036621094,82.81300354003906 -66.45800018310547,82.39600372314453 C-51.04100036621094,36.979000091552734 -41.875,-22.604000091552734 -40.41699981689453,-87.60399627685547z"/></g><g opacity="1" transform="matrix(1,0,0,1,388.9580078125,141.56199645996094)"><path class="primary" fill="rgb(18,19,49)" fill-opacity="1" d=" M-66.875,-83.85399627685547 C-67.29199981689453,-85.10399627685547 -67.70800018310547,-86.35399627685547 -68.33300018310547,-87.60399627685547 C5.625,-60.9370002746582 60.20800018310547,6.561999797821045 68.33300018310547,87.60399627685547 C68.33300018310547,87.60399627685547 -40.41699981689453,87.60399627685547 -40.41699981689453,87.60399627685547 C-41.875,22.604000091552734 -51.04100036621094,-36.979000091552734 -66.45800018310547,-82.39600372314453 C-66.66600036621094,-82.81300354003906 -66.66699981689453,-83.43699645996094 -66.875,-83.85399627685547z"/></g></g></g><g class="primary design" transform="matrix(1,0,0,1,0,0)" opacity="1" style="display: none;"><g opacity="1" transform="matrix(1,0,0,1,0,0)"><g opacity="1" transform="matrix(1,0,0,1,111.04199981689453,358.43701171875)"><path class="primary" fill="rgb(18,19,49)" fill-opacity="1" d=" M66.875,83.85399627685547 C67.29199981689453,85.10399627685547 67.70800018310547,86.35399627685547 68.33300018310547,87.60399627685547 C-5.625,60.9370002746582 -60.20800018310547,-6.561999797821045 -68.33300018310547,-87.60399627685547 C-68.33300018310547,-87.60399627685547 40.41699981689453,-87.60399627685547 40.41699981689453,-87.60399627685547 C41.875,-22.604000091552734 51.04100036621094,36.979000091552734 66.45800018310547,82.39600372314453 C66.66600036621094,82.81300354003906 66.66699981689453,83.43699645996094 66.875,83.85399627685547z"/></g><g opacity="1" transform="matrix(1,0,0,1,111.04199981689453,141.56199645996094)"><path class="primary" fill="rgb(18,19,49)" fill-opacity="1" d=" M40.41699981689453,87.60399627685547 C40.41699981689453,87.60399627685547 -68.33300018310547,87.60399627685547 -68.33300018310547,87.60399627685547 C-60.20800018310547,6.561999797821045 -5.625,-60.9370002746582 68.33300018310547,-87.60399627685547 C67.70800018310547,-86.35399627685547 67.29199981689453,-85.10399627685547 66.875,-83.85399627685547 C66.875,-83.43699645996094 66.66600036621094,-82.81300354003906 66.45800018310547,-82.39600372314453 C51.04100036621094,-36.979000091552734 41.875,22.604000091552734 40.41699981689453,87.60399627685547z"/></g><g opacity="1" transform="matrix(1,0,0,1,250,364.5830078125)"><path class="primary" fill="rgb(18,19,49)" fill-opacity="1" d=" M-56.875,-93.75 C-56.875,-93.75 56.875,-93.75 56.875,-93.75 C55.41699981689453,-33.33300018310547 46.66699981689453,23.125 32.5,63.95800018310547 C32.5,64.58300018310547 32.29100036621094,65 32.08300018310547,65.625 C28.541000366210938,76.04199981689453 24.583999633789062,85.20800018310547 20.41699981689453,92.70800018310547 C13.75,93.33300018310547 6.875,93.75 0,93.75 C-6.875,93.75 -13.75,93.33300018310547 -20.41699981689453,92.70800018310547 C-24.583999633789062,85.20800018310547 -28.541000366210938,76.04100036621094 -32.08300018310547,65.83300018310547 C-32.29100036621094,65.20800018310547 -32.5,64.58300018310547 -32.5,63.95800018310547 C-46.66699981689453,23.125 -55.41699981689453,-33.33300018310547 -56.875,-93.75z"/></g><g opacity="1" transform="matrix(1,0,0,1,250,135.41700744628906)"><path class="primary" fill="rgb(18,19,49)" fill-opacity="1" d=" M56.875,93.75 C56.875,93.75 -56.875,93.75 -56.875,93.75 C-55.41699981689453,33.33300018310547 -46.66699981689453,-23.125 -32.5,-63.95800018310547 C-32.5,-64.58300018310547 -32.29100036621094,-65 -32.08300018310547,-65.625 C-28.541000366210938,-76.04199981689453 -24.583999633789062,-85.20800018310547 -20.41699981689453,-92.70800018310547 C-13.75,-93.33300018310547 -6.875,-93.75 0,-93.75 C6.875,-93.75 13.75,-93.33300018310547 20.41699981689453,-92.70800018310547 C24.583999633789062,-85.20800018310547 28.541000366210938,-76.04100036621094 32.08300018310547,-65.83300018310547 C32.29100036621094,-65.20800018310547 32.5,-64.58300018310547 32.5,-63.95800018310547 C46.66699981689453,-23.125 55.41699981689453,33.33300018310547 56.875,93.75z"/></g><g opacity="1" transform="matrix(1,0,0,1,388.9580078125,358.43701171875)"><path class="primary" fill="rgb(18,19,49)" fill-opacity="1" d=" M-40.41699981689453,-87.60399627685547 C-40.41699981689453,-87.60399627685547 68.33300018310547,-87.60399627685547 68.33300018310547,-87.60399627685547 C60.20800018310547,-6.561999797821045 5.625,60.9370002746582 -68.33300018310547,87.60399627685547 C-67.70800018310547,86.35399627685547 -67.29199981689453,85.10399627685547 -66.875,83.85399627685547 C-66.875,83.43699645996094 -66.66600036621094,82.81300354003906 -66.45800018310547,82.39600372314453 C-51.04100036621094,36.979000091552734 -41.875,-22.604000091552734 -40.41699981689453,-87.60399627685547z"/></g><g opacity="1" transform="matrix(1,0,0,1,388.9580078125,141.56199645996094)"><path class="primary" fill="rgb(18,19,49)" fill-opacity="1" d=" M-66.875,-83.85399627685547 C-67.29199981689453,-85.10399627685547 -67.70800018310547,-86.35399627685547 -68.33300018310547,-87.60399627685547 C5.625,-60.9370002746582 60.20800018310547,6.561999797821045 68.33300018310547,87.60399627685547 C68.33300018310547,87.60399627685547 -40.41699981689453,87.60399627685547 -40.41699981689453,87.60399627685547 C-41.875,22.604000091552734 -51.04100036621094,-36.979000091552734 -66.45800018310547,-82.39600372314453 C-66.66600036621094,-82.81300354003906 -66.66699981689453,-83.43699645996094 -66.875,-83.85399627685547z"/></g></g></g></g></g></svg>